<svg width="32px" height="10.5px" viewBox="0 0 32 10.5" xmlns="http://www.w3.org/2000/svg">
  <path d="M 4.695 9.546 L 0.695 5.546 L 0.682 5.533 L 0.675 5.527 L 0.669 5.52 L 0.662 5.512 L 0.657 5.506 L 0.649 5.497 L 0.641 5.487 L 0.626 5.466 L 0.615 5.452 L 0.605 5.438 L 0.595 5.423 L 0.595 5.417 L 0.586 5.408 L 0.586 5.401 L 0.586 5.393 L 0.575 5.384 L 0.575 5.378 L 0.562 5.366 C 0.403 5.067 0.463 4.698 0.71 4.466 L 4.695 0.486 C 5.11 0.085 5.804 0.284 5.944 0.845 C 6.006 1.096 5.935 1.361 5.755 1.547 L 3.036 4.266 L 30.842 4.266 C 31.419 4.266 31.78 4.891 31.492 5.391 C 31.358 5.623 31.11 5.766 30.842 5.766 L 3.036 5.766 L 5.755 8.486 C 6.177 8.88 6.015 9.583 5.463 9.752 C 5.189 9.836 4.891 9.756 4.695 9.546 Z"/>
</svg>
